<svg xmlns="http://www.w3.org/2000/svg" viewBox="0 0 32 32" role="img" aria-labelledby="title">
  <title id="title">zenstory</title>
  <g fill="#081431">
    <path d="M4.5 8.4c4.6-.9 8.5.4 11.8 4.2-4.4-.3-8.2 1.2-11.7 4.4l-.1-8.6Z"/>
    <path d="M16.3 12.6c3.7-1.8 7.6-2.5 11.2-2.5v13.8c-3.7-.7-7.8.2-11.7 3.2 1.6-5.8 1.7-10.6.5-14.5Z"/>
    <path d="M16.3 12.6c-3.5 2.7-6.5 6.2-8.2 11.3 2.7-2.2 5.5-3.3 8.5-3.2 1.8.1 3.4.7 4.9 1.8-1.5-3.7-3.1-7-5.2-9.9Z"/>
  </g>
  <path d="M24.5 2.7c.7 2.7 1.8 3.8 4.5 4.5-2.7.7-3.8 1.8-4.5 4.5-.7-2.7-1.8-3.8-4.5-4.5 2.7-.7 3.8-1.8 4.5-4.5Z" fill="#22D3EE"/>
</svg>
